<?xml version="1.0" encoding="UTF-8" standalone="no"?>
<!DOCTYPE svg PUBLIC "-//W3C//DTD SVG 1.1//EN"
 "http://www.w3.org/Graphics/SVG/1.1/DTD/svg11.dtd">
<!-- Generated by graphviz version 14.0.0 (0)
 -->
<!-- Title: switch_xray Pages: 1 -->
<svg width="548pt" height="2292pt"
 viewBox="0.00 0.00 548.00 2292.00" xmlns="http://www.w3.org/2000/svg" xmlns:xlink="http://www.w3.org/1999/xlink">
<g id="graph0" class="graph" transform="scale(1 1) rotate(0) translate(36 2255.75)">
<title>switch_xray</title>
<polygon fill="#1e1e2e" stroke="none" points="-36,36 -36,-2255.75 512.25,-2255.75 512.25,36 -36,36"/>
<text xml:space="preserve" text-anchor="start" x="251.5" y="-5.2" font-family="Helvetica,Arial,sans-serif" font-size="9.00" fill="#6c7086">Generated by switch&#45;xray v1.0.1 — © 2026 Ciro Iriarte</text>
<g id="clust1" class="cluster">
<title>cluster_0</title>
<path fill="#1e1e2e" fill-opacity="0.800000" stroke="#585b70" stroke-width="1.5" d="M20,-25.75C20,-25.75 133.5,-25.75 133.5,-25.75 139.5,-25.75 145.5,-31.75 145.5,-37.75 145.5,-37.75 145.5,-2199.75 145.5,-2199.75 145.5,-2205.75 139.5,-2211.75 133.5,-2211.75 133.5,-2211.75 20,-2211.75 20,-2211.75 14,-2211.75 8,-2205.75 8,-2199.75 8,-2199.75 8,-37.75 8,-37.75 8,-31.75 14,-25.75 20,-25.75"/>
<text xml:space="preserve" text-anchor="start" x="63.25" y="-32.45" font-family="Helvetica,Arial,sans-serif" font-weight="bold" font-size="14.00" fill="#fab387">acme&#45;sw01</text>
</g>
<!-- port_acme_sw01_gigabitethernet0_0_0 -->
<g id="node1" class="node">
<title>port_acme_sw01_gigabitethernet0_0_0</title>
<polygon fill="#313244" stroke="none" points="19,-1969.38 19,-2028.12 134.5,-2028.12 134.5,-1969.38 19,-1969.38"/>
<text xml:space="preserve" text-anchor="start" x="25" y="-2012.67" font-family="Helvetica,Arial,sans-serif" font-weight="bold" font-size="11.00" fill="#cdd6f4">gigabitethernet0/0/0</text>
<text xml:space="preserve" text-anchor="start" x="52.75" y="-1994.33" font-family="Helvetica,Arial,sans-serif" font-size="9.00" fill="#a6adc8">Skynet core</text>
<text xml:space="preserve" text-anchor="start" x="40" y="-1976.58" font-family="Helvetica,Arial,sans-serif" font-size="9.00" fill="#a6adc8">100M • MTU:1514</text>
<polygon fill="none" stroke="#a6e3a1" points="19,-1969.38 19,-2028.12 134.5,-2028.12 134.5,-1969.38 19,-1969.38"/>
</g>
<!-- no_lldp_peer -->
<g id="node31" class="node">
<title>no_lldp_peer</title>
<path fill="#313244" stroke="none" d="M364.92,-967C364.92,-967 430.33,-967 430.33,-967 434.92,-967 439.5,-971.58 439.5,-976.17 439.5,-976.17 439.5,-985.33 439.5,-985.33 439.5,-989.92 434.92,-994.5 430.33,-994.5 430.33,-994.5 364.92,-994.5 364.92,-994.5 360.33,-994.5 355.75,-989.92 355.75,-985.33 355.75,-985.33 355.75,-976.17 355.75,-976.17 355.75,-971.58 360.33,-967 364.92,-967"/>
<text xml:space="preserve" text-anchor="start" x="362.75" y="-978.05" font-family="Helvetica,Arial,sans-serif" font-style="italic" font-size="11.00" fill="#6c7086">No LLDP peer</text>
<path fill="none" stroke="#6c7086" d="M364.92,-967C364.92,-967 430.33,-967 430.33,-967 434.92,-967 439.5,-971.58 439.5,-976.17 439.5,-976.17 439.5,-985.33 439.5,-985.33 439.5,-989.92 434.92,-994.5 430.33,-994.5 430.33,-994.5 364.92,-994.5 364.92,-994.5 360.33,-994.5 355.75,-989.92 355.75,-985.33 355.75,-985.33 355.75,-976.17 355.75,-976.17 355.75,-971.58 360.33,-967 364.92,-967"/>
</g>
<!-- port_acme_sw01_gigabitethernet0_0_0&#45;&gt;no_lldp_peer -->
<g id="edge1" class="edge">
<title>port_acme_sw01_gigabitethernet0_0_0&#45;&gt;no_lldp_peer</title>
<path fill="none" stroke="#6c7086" stroke-dasharray="5,2" d="M127.99,-1969.45C134.19,-1964.9 140.2,-1959.96 145.5,-1954.75 213.21,-1888.24 229.9,-1865.94 265,-1777.75 379.38,-1490.35 394.37,-1106.55 396.33,-1005.81"/>
<polygon fill="#6c7086" stroke="#6c7086" points="399.83,-1006.04 396.49,-995.98 392.83,-1005.92 399.83,-1006.04"/>
</g>
<!-- port_acme_sw01_gigabitethernet0_0_1 -->
<g id="node2" class="node">
<title>port_acme_sw01_gigabitethernet0_0_1</title>
<polygon fill="#313244" stroke="none" points="19,-2145.38 19,-2204.12 134.5,-2204.12 134.5,-2145.38 19,-2145.38"/>
<text xml:space="preserve" text-anchor="start" x="25" y="-2188.68" font-family="Helvetica,Arial,sans-serif" font-weight="bold" font-size="11.00" fill="#cdd6f4">gigabitethernet0/0/1</text>
<text xml:space="preserve" text-anchor="start" x="50.88" y="-2170.32" font-family="Helvetica,Arial,sans-serif" font-size="9.00" fill="#a6adc8">Cantina WiFi</text>
<text xml:space="preserve" text-anchor="start" x="45.62" y="-2152.57" font-family="Helvetica,Arial,sans-serif" font-size="9.00" fill="#a6adc8">1G • MTU:1514</text>
<polygon fill="none" stroke="#a6e3a1" points="19,-2145.38 19,-2204.12 134.5,-2204.12 134.5,-2145.38 19,-2145.38"/>
</g>
<!-- neighbor_death_star_ap -->
<g id="node29" class="node">
<title>neighbor_death_star_ap</title>
<path fill="#313244" stroke="none" d="M336.25,-2151.5C336.25,-2151.5 459,-2151.5 459,-2151.5 465,-2151.5 471,-2157.5 471,-2163.5 471,-2163.5 471,-2186 471,-2186 471,-2192 465,-2198 459,-2198 459,-2198 336.25,-2198 336.25,-2198 330.25,-2198 324.25,-2192 324.25,-2186 324.25,-2186 324.25,-2163.5 324.25,-2163.5 324.25,-2157.5 330.25,-2151.5 336.25,-2151.5"/>
<text xml:space="preserve" text-anchor="start" x="359" y="-2180.6" font-family="Helvetica,Arial,sans-serif" font-weight="bold" font-size="12.00" fill="#cba6f7">death&#45;star&#45;ap</text>
<text xml:space="preserve" text-anchor="start" x="331.25" y="-2159.7" font-family="Helvetica,Arial,sans-serif" font-size="9.00" fill="#a6adc8"> SkyOS 42.0 (Death Star Edition)</text>
<path fill="none" stroke="#cba6f7" d="M336.25,-2151.5C336.25,-2151.5 459,-2151.5 459,-2151.5 465,-2151.5 471,-2157.5 471,-2163.5 471,-2163.5 471,-2186 471,-2186 471,-2192 465,-2198 459,-2198 459,-2198 336.25,-2198 336.25,-2198 330.25,-2198 324.25,-2192 324.25,-2186 324.25,-2186 324.25,-2163.5 324.25,-2163.5 324.25,-2157.5 330.25,-2151.5 336.25,-2151.5"/>
</g>
<!-- port_acme_sw01_gigabitethernet0_0_1&#45;&gt;neighbor_death_star_ap -->
<g id="edge2" class="edge">
<title>port_acme_sw01_gigabitethernet0_0_1&#45;&gt;neighbor_death_star_ap</title>
<path fill="none" stroke="#a6e3a1" stroke-width="2" d="M134.39,-2174.75C183.54,-2174.75 255.4,-2174.75 311.48,-2174.75"/>
<polygon fill="#a6e3a1" stroke="#a6e3a1" stroke-width="2" points="311.25,-2178.25 321.25,-2174.75 311.25,-2171.25 311.25,-2178.25"/>
<text xml:space="preserve" text-anchor="start" x="191.5" y="-2186.25" font-family="Helvetica,Arial,sans-serif" font-size="10.00" fill="#a6adc8">de:ad:be:ef:ca:fe</text>
<text xml:space="preserve" text-anchor="start" x="221.88" y="-2175.75" font-family="Helvetica,Arial,sans-serif" font-size="10.00" fill="#a6adc8">1G</text>
</g>
<!-- port_acme_sw01_gigabitethernet0_0_2 -->
<g id="node3" class="node">
<title>port_acme_sw01_gigabitethernet0_0_2</title>
<polygon fill="#313244" stroke="none" points="19,-1881.38 19,-1940.12 134.5,-1940.12 134.5,-1881.38 19,-1881.38"/>
<text xml:space="preserve" text-anchor="start" x="25" y="-1924.67" font-family="Helvetica,Arial,sans-serif" font-weight="bold" font-size="11.00" fill="#cdd6f4">gigabitethernet0/0/2</text>
<text xml:space="preserve" text-anchor="start" x="39.62" y="-1906.33" font-family="Helvetica,Arial,sans-serif" font-size="9.00" fill="#a6adc8">Wookiee den WiFi</text>
<text xml:space="preserve" text-anchor="start" x="45.62" y="-1888.58" font-family="Helvetica,Arial,sans-serif" font-size="9.00" fill="#a6adc8">1G • MTU:1514</text>
<polygon fill="none" stroke="#a6e3a1" points="19,-1881.38 19,-1940.12 134.5,-1940.12 134.5,-1881.38 19,-1881.38"/>
</g>
<!-- port_acme_sw01_gigabitethernet0_0_2&#45;&gt;no_lldp_peer -->
<g id="edge3" class="edge">
<title>port_acme_sw01_gigabitethernet0_0_2&#45;&gt;no_lldp_peer</title>
<path fill="none" stroke="#6c7086" stroke-dasharray="5,2" d="M127.95,-1881.41C134.15,-1876.86 140.18,-1871.94 145.5,-1866.75 212.69,-1801.27 229.13,-1779.44 265,-1692.75 369.99,-1439 391.64,-1099.84 395.74,-1005.82"/>
<polygon fill="#6c7086" stroke="#6c7086" points="399.23,-1006.09 396.14,-995.96 392.23,-1005.81 399.23,-1006.09"/>
</g>
<!-- port_acme_sw01_gigabitethernet0_0_3 -->
<g id="node4" class="node">
<title>port_acme_sw01_gigabitethernet0_0_3</title>
<polygon fill="#313244" stroke="none" points="19,-1793.38 19,-1852.12 134.5,-1852.12 134.5,-1793.38 19,-1793.38"/>
<text xml:space="preserve" text-anchor="start" x="25" y="-1836.67" font-family="Helvetica,Arial,sans-serif" font-weight="bold" font-size="11.00" fill="#cdd6f4">gigabitethernet0/0/3</text>
<text xml:space="preserve" text-anchor="start" x="47.12" y="-1818.33" font-family="Helvetica,Arial,sans-serif" font-size="9.00" fill="#a6adc8">Holodeck WiFi</text>
<text xml:space="preserve" text-anchor="start" x="45.62" y="-1800.58" font-family="Helvetica,Arial,sans-serif" font-size="9.00" fill="#a6adc8">1G • MTU:1514</text>
<polygon fill="none" stroke="#a6e3a1" points="19,-1793.38 19,-1852.12 134.5,-1852.12 134.5,-1793.38 19,-1793.38"/>
</g>
<!-- port_acme_sw01_gigabitethernet0_0_3&#45;&gt;no_lldp_peer -->
<g id="edge4" class="edge">
<title>port_acme_sw01_gigabitethernet0_0_3&#45;&gt;no_lldp_peer</title>
<path fill="none" stroke="#6c7086" stroke-dasharray="5,2" d="M127.52,-1793.59C133.86,-1788.98 140.03,-1783.99 145.5,-1778.75 211.65,-1715.34 228.3,-1694.71 265,-1610.75 361.83,-1389.24 389.01,-1092.15 395.1,-1005.46"/>
<polygon fill="#6c7086" stroke="#6c7086" points="398.57,-1005.95 395.75,-995.74 391.59,-1005.48 398.57,-1005.95"/>
</g>
<!-- port_acme_sw01_gigabitethernet0_0_4 -->
<g id="node5" class="node">
<title>port_acme_sw01_gigabitethernet0_0_4</title>
<polygon fill="#313244" stroke="none" points="19,-1705.38 19,-1764.12 134.5,-1764.12 134.5,-1705.38 19,-1705.38"/>
<text xml:space="preserve" text-anchor="start" x="25" y="-1748.67" font-family="Helvetica,Arial,sans-serif" font-weight="bold" font-size="11.00" fill="#cdd6f4">gigabitethernet0/0/4</text>
<text xml:space="preserve" text-anchor="start" x="29.88" y="-1730.33" font-family="Helvetica,Arial,sans-serif" font-size="9.00" fill="#a6adc8">Rooftop pigeon tracker</text>
<text xml:space="preserve" text-anchor="start" x="40" y="-1712.58" font-family="Helvetica,Arial,sans-serif" font-size="9.00" fill="#a6adc8">100M • MTU:1514</text>
<polygon fill="none" stroke="#a6e3a1" points="19,-1705.38 19,-1764.12 134.5,-1764.12 134.5,-1705.38 19,-1705.38"/>
</g>
<!-- port_acme_sw01_gigabitethernet0_0_4&#45;&gt;no_lldp_peer -->
<g id="edge5" class="edge">
<title>port_acme_sw01_gigabitethernet0_0_4&#45;&gt;no_lldp_peer</title>
<path fill="none" stroke="#6c7086" stroke-dasharray="5,2" d="M127.39,-1705.45C133.75,-1700.86 139.96,-1695.92 145.5,-1690.75 210.11,-1630.42 227.39,-1611.75 265,-1531.75 354.37,-1341.66 386.24,-1085.24 394.34,-1005.47"/>
<polygon fill="#6c7086" stroke="#6c7086" points="397.8,-1006.02 395.3,-995.73 390.84,-1005.34 397.8,-1006.02"/>
</g>
<!-- port_acme_sw01_gigabitethernet0_0_5 -->
<g id="node6" class="node">
<title>port_acme_sw01_gigabitethernet0_0_5</title>
<polygon fill="#313244" stroke="none" points="19,-1617.38 19,-1676.12 134.5,-1676.12 134.5,-1617.38 19,-1617.38"/>
<text xml:space="preserve" text-anchor="start" x="25" y="-1660.67" font-family="Helvetica,Arial,sans-serif" font-weight="bold" font-size="11.00" fill="#cdd6f4">gigabitethernet0/0/5</text>
<text xml:space="preserve" text-anchor="start" x="31" y="-1642.33" font-family="Helvetica,Arial,sans-serif" font-size="9.00" fill="#a6adc8">Garden gnome sensor</text>
<text xml:space="preserve" text-anchor="start" x="44.12" y="-1624.58" font-family="Helvetica,Arial,sans-serif" font-size="9.00" fill="#a6adc8">N/A • MTU:1514</text>
<polygon fill="none" stroke="#f38ba8" points="19,-1617.38 19,-1676.12 134.5,-1676.12 134.5,-1617.38 19,-1617.38"/>
</g>
<!-- port_acme_sw01_gigabitethernet0_0_5&#45;&gt;no_lldp_peer -->
<g id="edge6" class="edge">
<title>port_acme_sw01_gigabitethernet0_0_5&#45;&gt;no_lldp_peer</title>
<path fill="none" stroke="#6c7086" stroke-dasharray="5,2" d="M126.82,-1617.47C133.34,-1612.85 139.75,-1607.89 145.5,-1602.75 207.8,-1547.14 226.49,-1531.85 265,-1457.75 348.32,-1297.42 383.58,-1078.55 393.51,-1005.57"/>
<polygon fill="#6c7086" stroke="#6c7086" points="396.94,-1006.28 394.78,-995.9 390,-1005.36 396.94,-1006.28"/>
</g>
<!-- port_acme_sw01_gigabitethernet0_0_6 -->
<g id="node7" class="node">
<title>port_acme_sw01_gigabitethernet0_0_6</title>
<polygon fill="#313244" stroke="none" points="19,-1547.25 19,-1588.25 134.5,-1588.25 134.5,-1547.25 19,-1547.25"/>
<text xml:space="preserve" text-anchor="start" x="25" y="-1572.8" font-family="Helvetica,Arial,sans-serif" font-weight="bold" font-size="11.00" fill="#cdd6f4">gigabitethernet0/0/6</text>
<text xml:space="preserve" text-anchor="start" x="44.12" y="-1554.45" font-family="Helvetica,Arial,sans-serif" font-size="9.00" fill="#a6adc8">N/A • MTU:1514</text>
<polygon fill="none" stroke="#f38ba8" points="19,-1547.25 19,-1588.25 134.5,-1588.25 134.5,-1547.25 19,-1547.25"/>
</g>
<!-- port_acme_sw01_gigabitethernet0_0_6&#45;&gt;no_lldp_peer -->
<g id="edge7" class="edge">
<title>port_acme_sw01_gigabitethernet0_0_6&#45;&gt;no_lldp_peer</title>
<path fill="none" stroke="#6c7086" stroke-dasharray="5,2" d="M123.88,-1547.31C131.46,-1543.02 138.96,-1538.14 145.5,-1532.75 211.56,-1478.33 224.47,-1457.13 265,-1381.75 336.55,-1248.67 378.24,-1069.8 391.74,-1005.25"/>
<polygon fill="#6c7086" stroke="#6c7086" points="395.12,-1006.22 393.7,-995.72 388.26,-1004.82 395.12,-1006.22"/>
</g>
<!-- port_acme_sw01_gigabitethernet0_0_7 -->
<g id="node8" class="node">
<title>port_acme_sw01_gigabitethernet0_0_7</title>
<polygon fill="#313244" stroke="none" points="19,-1477.25 19,-1518.25 134.5,-1518.25 134.5,-1477.25 19,-1477.25"/>
<text xml:space="preserve" text-anchor="start" x="25" y="-1502.8" font-family="Helvetica,Arial,sans-serif" font-weight="bold" font-size="11.00" fill="#cdd6f4">gigabitethernet0/0/7</text>
<text xml:space="preserve" text-anchor="start" x="44.12" y="-1484.45" font-family="Helvetica,Arial,sans-serif" font-size="9.00" fill="#a6adc8">N/A • MTU:1514</text>
<polygon fill="none" stroke="#f38ba8" points="19,-1477.25 19,-1518.25 134.5,-1518.25 134.5,-1477.25 19,-1477.25"/>
</g>
<!-- port_acme_sw01_gigabitethernet0_0_7&#45;&gt;no_lldp_peer -->
<g id="edge8" class="edge">
<title>port_acme_sw01_gigabitethernet0_0_7&#45;&gt;no_lldp_peer</title>
<path fill="none" stroke="#6c7086" stroke-dasharray="5,2" d="M124.37,-1477.28C131.82,-1473.02 139.15,-1468.15 145.5,-1462.75 213.39,-1405.03 221.2,-1379.36 265,-1301.75 324.16,-1196.93 371.17,-1060.15 388.94,-1005.19"/>
<polygon fill="#6c7086" stroke="#6c7086" points="392.2,-1006.48 391.91,-995.89 385.53,-1004.35 392.2,-1006.48"/>
</g>
<!-- port_acme_sw01_gigabitethernet0_0_8 -->
<g id="node9" class="node">
<title>port_acme_sw01_gigabitethernet0_0_8</title>
<polygon fill="#313244" stroke="none" points="19,-2057.38 19,-2116.12 134.5,-2116.12 134.5,-2057.38 19,-2057.38"/>
<text xml:space="preserve" text-anchor="start" x="25" y="-2100.68" font-family="Helvetica,Arial,sans-serif" font-weight="bold" font-size="11.00" fill="#cdd6f4">gigabitethernet0/0/8</text>
<text xml:space="preserve" text-anchor="start" x="48.25" y="-2082.32" font-family="Helvetica,Arial,sans-serif" font-size="9.00" fill="#a6adc8">Flux capacitor</text>
<text xml:space="preserve" text-anchor="start" x="45.62" y="-2064.57" font-family="Helvetica,Arial,sans-serif" font-size="9.00" fill="#a6adc8">1G • MTU:1514</text>
<polygon fill="none" stroke="#a6e3a1" points="19,-2057.38 19,-2116.12 134.5,-2116.12 134.5,-2057.38 19,-2057.38"/>
</g>
<!-- neighbor_millennium_falcon -->
<g id="node30" class="node">
<title>neighbor_millennium_falcon</title>
<path fill="#313244" stroke="none" d="M331,-2063.5C331,-2063.5 464.25,-2063.5 464.25,-2063.5 470.25,-2063.5 476.25,-2069.5 476.25,-2075.5 476.25,-2075.5 476.25,-2098 476.25,-2098 476.25,-2104 470.25,-2110 464.25,-2110 464.25,-2110 331,-2110 331,-2110 325,-2110 319,-2104 319,-2098 319,-2098 319,-2075.5 319,-2075.5 319,-2069.5 325,-2063.5 331,-2063.5"/>
<text xml:space="preserve" text-anchor="start" x="347" y="-2092.6" font-family="Helvetica,Arial,sans-serif" font-weight="bold" font-size="12.00" fill="#cba6f7">millennium&#45;falcon</text>
<text xml:space="preserve" text-anchor="start" x="326" y="-2071.7" font-family="Helvetica,Arial,sans-serif" font-size="9.00" fill="#a6adc8"> HyperOS 1.21&#45;GIGAWATTS arm64</text>
<path fill="none" stroke="#cba6f7" d="M331,-2063.5C331,-2063.5 464.25,-2063.5 464.25,-2063.5 470.25,-2063.5 476.25,-2069.5 476.25,-2075.5 476.25,-2075.5 476.25,-2098 476.25,-2098 476.25,-2104 470.25,-2110 464.25,-2110 464.25,-2110 331,-2110 331,-2110 325,-2110 319,-2104 319,-2098 319,-2098 319,-2075.5 319,-2075.5 319,-2069.5 325,-2063.5 331,-2063.5"/>
</g>
<!-- port_acme_sw01_gigabitethernet0_0_8&#45;&gt;neighbor_millennium_falcon -->
<g id="edge9" class="edge">
<title>port_acme_sw01_gigabitethernet0_0_8&#45;&gt;neighbor_millennium_falcon</title>
<path fill="none" stroke="#a6e3a1" stroke-width="2" d="M134.39,-2086.75C182.03,-2086.75 251,-2086.75 306.26,-2086.75"/>
<polygon fill="#a6e3a1" stroke="#a6e3a1" stroke-width="2" points="306.24,-2090.25 316.24,-2086.75 306.24,-2083.25 306.24,-2090.25"/>
<text xml:space="preserve" text-anchor="start" x="191.5" y="-2098.25" font-family="Helvetica,Arial,sans-serif" font-size="10.00" fill="#a6adc8">ba:dc:0f:fe:e0:42</text>
<text xml:space="preserve" text-anchor="start" x="221.88" y="-2087.75" font-family="Helvetica,Arial,sans-serif" font-size="10.00" fill="#a6adc8">1G</text>
</g>
<!-- port_acme_sw01_gigabitethernet0_0_9 -->
<g id="node10" class="node">
<title>port_acme_sw01_gigabitethernet0_0_9</title>
<polygon fill="#313244" stroke="none" points="19,-1389.38 19,-1448.12 134.5,-1448.12 134.5,-1389.38 19,-1389.38"/>
<text xml:space="preserve" text-anchor="start" x="25" y="-1432.67" font-family="Helvetica,Arial,sans-serif" font-weight="bold" font-size="11.00" fill="#cdd6f4">gigabitethernet0/0/9</text>
<text xml:space="preserve" text-anchor="start" x="39.25" y="-1414.33" font-family="Helvetica,Arial,sans-serif" font-size="9.00" fill="#a6adc8">Interwebs gateway</text>
<text xml:space="preserve" text-anchor="start" x="44.12" y="-1396.58" font-family="Helvetica,Arial,sans-serif" font-size="9.00" fill="#a6adc8">N/A • MTU:1514</text>
<polygon fill="none" stroke="#f38ba8" points="19,-1389.38 19,-1448.12 134.5,-1448.12 134.5,-1389.38 19,-1389.38"/>
</g>
<!-- port_acme_sw01_gigabitethernet0_0_9&#45;&gt;no_lldp_peer -->
<g id="edge10" class="edge">
<title>port_acme_sw01_gigabitethernet0_0_9&#45;&gt;no_lldp_peer</title>
<path fill="none" stroke="#6c7086" stroke-dasharray="5,2" d="M126.84,-1389.49C133.35,-1384.86 139.75,-1379.9 145.5,-1374.75 271.44,-1261.94 358.78,-1071.63 386.88,-1004.81"/>
<polygon fill="#6c7086" stroke="#6c7086" points="389.99,-1006.47 390.58,-995.89 383.52,-1003.79 389.99,-1006.47"/>
</g>
<!-- port_acme_sw01_gigabitethernet0_0_10 -->
<g id="node11" class="node">
<title>port_acme_sw01_gigabitethernet0_0_10</title>
<polygon fill="#313244" stroke="none" points="16,-1301.38 16,-1360.12 137.5,-1360.12 137.5,-1301.38 16,-1301.38"/>
<text xml:space="preserve" text-anchor="start" x="22" y="-1344.67" font-family="Helvetica,Arial,sans-serif" font-weight="bold" font-size="11.00" fill="#cdd6f4">gigabitethernet0/0/10</text>
<text xml:space="preserve" text-anchor="start" x="44.5" y="-1326.33" font-family="Helvetica,Arial,sans-serif" font-size="9.00" fill="#a6adc8">Ancient relic AP</text>
<text xml:space="preserve" text-anchor="start" x="44.12" y="-1308.58" font-family="Helvetica,Arial,sans-serif" font-size="9.00" fill="#a6adc8">N/A • MTU:1514</text>
<polygon fill="none" stroke="#f38ba8" points="16,-1301.38 16,-1360.12 137.5,-1360.12 137.5,-1301.38 16,-1301.38"/>
</g>
<!-- port_acme_sw01_gigabitethernet0_0_10&#45;&gt;no_lldp_peer -->
<g id="edge11" class="edge">
<title>port_acme_sw01_gigabitethernet0_0_10&#45;&gt;no_lldp_peer</title>
<path fill="none" stroke="#6c7086" stroke-dasharray="5,2" d="M126.21,-1301.43C132.89,-1296.78 139.5,-1291.82 145.5,-1286.75 251.51,-1197.14 346.57,-1058.45 381.96,-1003.9"/>
<polygon fill="#6c7086" stroke="#6c7086" points="384.76,-1006.02 387.23,-995.72 378.87,-1002.23 384.76,-1006.02"/>
</g>
<!-- port_acme_sw01_gigabitethernet0_0_11 -->
<g id="node12" class="node">
<title>port_acme_sw01_gigabitethernet0_0_11</title>
<polygon fill="#313244" stroke="none" points="16,-1213.38 16,-1272.12 137.5,-1272.12 137.5,-1213.38 16,-1213.38"/>
<text xml:space="preserve" text-anchor="start" x="22" y="-1256.67" font-family="Helvetica,Arial,sans-serif" font-weight="bold" font-size="11.00" fill="#cdd6f4">gigabitethernet0/0/11</text>
<text xml:space="preserve" text-anchor="start" x="64.75" y="-1238.33" font-family="Helvetica,Arial,sans-serif" font-size="9.00" fill="#a6adc8">FREE</text>
<text xml:space="preserve" text-anchor="start" x="44.12" y="-1220.58" font-family="Helvetica,Arial,sans-serif" font-size="9.00" fill="#a6adc8">N/A • MTU:1514</text>
<polygon fill="none" stroke="#f38ba8" points="16,-1213.38 16,-1272.12 137.5,-1272.12 137.5,-1213.38 16,-1213.38"/>
</g>
<!-- port_acme_sw01_gigabitethernet0_0_11&#45;&gt;no_lldp_peer -->
<g id="edge12" class="edge">
<title>port_acme_sw01_gigabitethernet0_0_11&#45;&gt;no_lldp_peer</title>
<path fill="none" stroke="#6c7086" stroke-dasharray="5,2" d="M124.05,-1213.48C131.3,-1208.67 138.66,-1203.65 145.5,-1198.75 200.45,-1159.42 213.8,-1148.85 265,-1104.75 305.18,-1070.14 349.64,-1027.22 375.24,-1002.02"/>
<polygon fill="#6c7086" stroke="#6c7086" points="377.43,-1004.78 382.09,-995.26 372.51,-999.8 377.43,-1004.78"/>
</g>
<!-- port_acme_sw01_gigabitethernet0_0_12 -->
<g id="node13" class="node">
<title>port_acme_sw01_gigabitethernet0_0_12</title>
<polygon fill="#313244" stroke="none" points="16,-1143.25 16,-1184.25 137.5,-1184.25 137.5,-1143.25 16,-1143.25"/>
<text xml:space="preserve" text-anchor="start" x="22" y="-1168.8" font-family="Helvetica,Arial,sans-serif" font-weight="bold" font-size="11.00" fill="#cdd6f4">gigabitethernet0/0/12</text>
<text xml:space="preserve" text-anchor="start" x="44.12" y="-1150.45" font-family="Helvetica,Arial,sans-serif" font-size="9.00" fill="#a6adc8">N/A • MTU:1514</text>
<polygon fill="none" stroke="#f38ba8" points="16,-1143.25 16,-1184.25 137.5,-1184.25 137.5,-1143.25 16,-1143.25"/>
</g>
<!-- port_acme_sw01_gigabitethernet0_0_12&#45;&gt;no_lldp_peer -->
<g id="edge13" class="edge">
<title>port_acme_sw01_gigabitethernet0_0_12&#45;&gt;no_lldp_peer</title>
<path fill="none" stroke="#6c7086" stroke-dasharray="5,2" d="M117.61,-1143.39C126.8,-1138.63 136.51,-1133.55 145.5,-1128.75 199.01,-1100.16 212.68,-1093.47 265,-1062.75 300,-1042.2 339.42,-1017.42 365.92,-1000.52"/>
<polygon fill="#6c7086" stroke="#6c7086" points="367.59,-1003.6 374.13,-995.26 363.82,-997.7 367.59,-1003.6"/>
</g>
<!-- port_acme_sw01_gigabitethernet0_0_13 -->
<g id="node14" class="node">
<title>port_acme_sw01_gigabitethernet0_0_13</title>
<polygon fill="#313244" stroke="none" points="16,-1073.25 16,-1114.25 137.5,-1114.25 137.5,-1073.25 16,-1073.25"/>
<text xml:space="preserve" text-anchor="start" x="22" y="-1098.8" font-family="Helvetica,Arial,sans-serif" font-weight="bold" font-size="11.00" fill="#cdd6f4">gigabitethernet0/0/13</text>
<text xml:space="preserve" text-anchor="start" x="44.12" y="-1080.45" font-family="Helvetica,Arial,sans-serif" font-size="9.00" fill="#a6adc8">N/A • MTU:1514</text>
<polygon fill="none" stroke="#f38ba8" points="16,-1073.25 16,-1114.25 137.5,-1114.25 137.5,-1073.25 16,-1073.25"/>
</g>
<!-- port_acme_sw01_gigabitethernet0_0_13&#45;&gt;no_lldp_peer -->
<g id="edge14" class="edge">
<title>port_acme_sw01_gigabitethernet0_0_13&#45;&gt;no_lldp_peer</title>
<path fill="none" stroke="#6c7086" stroke-dasharray="5,2" d="M135.5,-1073.29C196.03,-1051.84 290.12,-1018.49 347.29,-998.23"/>
<polygon fill="#6c7086" stroke="#6c7086" points="348.18,-1001.63 356.44,-994.99 345.85,-995.03 348.18,-1001.63"/>
</g>
<!-- port_acme_sw01_gigabitethernet0_0_14 -->
<g id="node15" class="node">
<title>port_acme_sw01_gigabitethernet0_0_14</title>
<polygon fill="#313244" stroke="none" points="16,-1003.25 16,-1044.25 137.5,-1044.25 137.5,-1003.25 16,-1003.25"/>
<text xml:space="preserve" text-anchor="start" x="22" y="-1028.8" font-family="Helvetica,Arial,sans-serif" font-weight="bold" font-size="11.00" fill="#cdd6f4">gigabitethernet0/0/14</text>
<text xml:space="preserve" text-anchor="start" x="45.62" y="-1010.45" font-family="Helvetica,Arial,sans-serif" font-size="9.00" fill="#a6adc8">1G • MTU:1514</text>
<polygon fill="none" stroke="#a6e3a1" points="16,-1003.25 16,-1044.25 137.5,-1044.25 137.5,-1003.25 16,-1003.25"/>
</g>
<!-- port_acme_sw01_gigabitethernet0_0_14&#45;&gt;no_lldp_peer -->
<g id="edge15" class="edge">
<title>port_acme_sw01_gigabitethernet0_0_14&#45;&gt;no_lldp_peer</title>
<path fill="none" stroke="#6c7086" stroke-dasharray="5,2" d="M137.35,-1015.71C197.05,-1007.66 288,-995.4 344.79,-987.74"/>
<polygon fill="#6c7086" stroke="#6c7086" points="345.08,-991.23 354.52,-986.43 344.14,-984.3 345.08,-991.23"/>
</g>
<!-- port_acme_sw01_gigabitethernet0_0_15 -->
<g id="node16" class="node">
<title>port_acme_sw01_gigabitethernet0_0_15</title>
<polygon fill="#313244" stroke="none" points="16,-933.25 16,-974.25 137.5,-974.25 137.5,-933.25 16,-933.25"/>
<text xml:space="preserve" text-anchor="start" x="22" y="-958.8" font-family="Helvetica,Arial,sans-serif" font-weight="bold" font-size="11.00" fill="#cdd6f4">gigabitethernet0/0/15</text>
<text xml:space="preserve" text-anchor="start" x="40" y="-940.45" font-family="Helvetica,Arial,sans-serif" font-size="9.00" fill="#a6adc8">100M • MTU:1514</text>
<polygon fill="none" stroke="#a6e3a1" points="16,-933.25 16,-974.25 137.5,-974.25 137.5,-933.25 16,-933.25"/>
</g>
<!-- port_acme_sw01_gigabitethernet0_0_15&#45;&gt;no_lldp_peer -->
<g id="edge16" class="edge">
<title>port_acme_sw01_gigabitethernet0_0_15&#45;&gt;no_lldp_peer</title>
<path fill="none" stroke="#6c7086" stroke-dasharray="5,2" d="M137.35,-958.8C197.05,-963.85 288,-971.55 344.79,-976.36"/>
<polygon fill="#6c7086" stroke="#6c7086" points="344.26,-979.83 354.51,-977.18 344.85,-972.85 344.26,-979.83"/>
</g>
<!-- port_acme_sw01_gigabitethernet0_0_16 -->
<g id="node17" class="node">
<title>port_acme_sw01_gigabitethernet0_0_16</title>
<polygon fill="#313244" stroke="none" points="16,-845.38 16,-904.12 137.5,-904.12 137.5,-845.38 16,-845.38"/>
<text xml:space="preserve" text-anchor="start" x="22" y="-888.67" font-family="Helvetica,Arial,sans-serif" font-weight="bold" font-size="11.00" fill="#cdd6f4">gigabitethernet0/0/16</text>
<text xml:space="preserve" text-anchor="start" x="51.62" y="-870.33" font-family="Helvetica,Arial,sans-serif" font-size="9.00" fill="#a6adc8">Toaster IPMI</text>
<text xml:space="preserve" text-anchor="start" x="44.12" y="-852.58" font-family="Helvetica,Arial,sans-serif" font-size="9.00" fill="#a6adc8">N/A • MTU:1514</text>
<polygon fill="none" stroke="#f38ba8" points="16,-845.38 16,-904.12 137.5,-904.12 137.5,-845.38 16,-845.38"/>
</g>
<!-- port_acme_sw01_gigabitethernet0_0_16&#45;&gt;no_lldp_peer -->
<g id="edge17" class="edge">
<title>port_acme_sw01_gigabitethernet0_0_16&#45;&gt;no_lldp_peer</title>
<path fill="none" stroke="#6c7086" stroke-dasharray="5,2" d="M137.35,-894.56C197.18,-914.45 288.38,-944.77 345.15,-963.64"/>
<polygon fill="#6c7086" stroke="#6c7086" points="343.99,-966.94 354.59,-966.78 346.2,-960.3 343.99,-966.94"/>
</g>
<!-- port_acme_sw01_gigabitethernet0_0_17 -->
<g id="node18" class="node">
<title>port_acme_sw01_gigabitethernet0_0_17</title>
<polygon fill="#313244" stroke="none" points="16,-775.25 16,-816.25 137.5,-816.25 137.5,-775.25 16,-775.25"/>
<text xml:space="preserve" text-anchor="start" x="22" y="-800.8" font-family="Helvetica,Arial,sans-serif" font-weight="bold" font-size="11.00" fill="#cdd6f4">gigabitethernet0/0/17</text>
<text xml:space="preserve" text-anchor="start" x="44.12" y="-782.45" font-family="Helvetica,Arial,sans-serif" font-size="9.00" fill="#a6adc8">N/A • MTU:1514</text>
<polygon fill="none" stroke="#f38ba8" points="16,-775.25 16,-816.25 137.5,-816.25 137.5,-775.25 16,-775.25"/>
</g>
<!-- port_acme_sw01_gigabitethernet0_0_17&#45;&gt;no_lldp_peer -->
<g id="edge18" class="edge">
<title>port_acme_sw01_gigabitethernet0_0_17&#45;&gt;no_lldp_peer</title>
<path fill="none" stroke="#6c7086" stroke-dasharray="5,2" d="M118.09,-816.07C127.16,-820.79 136.71,-825.86 145.5,-830.75 225.71,-875.37 317.84,-931.75 365.07,-961.05"/>
<polygon fill="#6c7086" stroke="#6c7086" points="363.09,-963.94 373.43,-966.25 366.79,-958 363.09,-963.94"/>
</g>
<!-- port_acme_sw01_gigabitethernet0_0_18 -->
<g id="node19" class="node">
<title>port_acme_sw01_gigabitethernet0_0_18</title>
<polygon fill="#313244" stroke="none" points="16,-705.25 16,-746.25 137.5,-746.25 137.5,-705.25 16,-705.25"/>
<text xml:space="preserve" text-anchor="start" x="22" y="-730.8" font-family="Helvetica,Arial,sans-serif" font-weight="bold" font-size="11.00" fill="#cdd6f4">gigabitethernet0/0/18</text>
<text xml:space="preserve" text-anchor="start" x="44.12" y="-712.45" font-family="Helvetica,Arial,sans-serif" font-size="9.00" fill="#a6adc8">N/A • MTU:1514</text>
<polygon fill="none" stroke="#f38ba8" points="16,-705.25 16,-746.25 137.5,-746.25 137.5,-705.25 16,-705.25"/>
</g>
<!-- port_acme_sw01_gigabitethernet0_0_18&#45;&gt;no_lldp_peer -->
<g id="edge19" class="edge">
<title>port_acme_sw01_gigabitethernet0_0_18&#45;&gt;no_lldp_peer</title>
<path fill="none" stroke="#6c7086" stroke-dasharray="5,2" d="M119.95,-746.11C128.56,-750.66 137.44,-755.66 145.5,-760.75 201.92,-796.43 214.51,-808.08 265,-851.75 306.31,-887.48 351.05,-932.92 376.28,-959.23"/>
<polygon fill="#6c7086" stroke="#6c7086" points="373.58,-961.46 383.01,-966.28 378.64,-956.63 373.58,-961.46"/>
</g>
<!-- port_acme_sw01_gigabitethernet0_0_19 -->
<g id="node20" class="node">
<title>port_acme_sw01_gigabitethernet0_0_19</title>
<polygon fill="#313244" stroke="none" points="16,-635.25 16,-676.25 137.5,-676.25 137.5,-635.25 16,-635.25"/>
<text xml:space="preserve" text-anchor="start" x="22" y="-660.8" font-family="Helvetica,Arial,sans-serif" font-weight="bold" font-size="11.00" fill="#cdd6f4">gigabitethernet0/0/19</text>
<text xml:space="preserve" text-anchor="start" x="44.12" y="-642.45" font-family="Helvetica,Arial,sans-serif" font-size="9.00" fill="#a6adc8">N/A • MTU:1514</text>
<polygon fill="none" stroke="#f38ba8" points="16,-635.25 16,-676.25 137.5,-676.25 137.5,-635.25 16,-635.25"/>
</g>
<!-- port_acme_sw01_gigabitethernet0_0_19&#45;&gt;no_lldp_peer -->
<g id="edge20" class="edge">
<title>port_acme_sw01_gigabitethernet0_0_19&#45;&gt;no_lldp_peer</title>
<path fill="none" stroke="#6c7086" stroke-dasharray="5,2" d="M120.39,-676.17C128.88,-680.68 137.61,-685.64 145.5,-690.75 202.47,-727.61 218.93,-735.94 265,-785.75 316.72,-841.66 362.93,-919.58 384.22,-957.78"/>
<polygon fill="#6c7086" stroke="#6c7086" points="380.92,-959.06 388.81,-966.13 387.05,-955.68 380.92,-959.06"/>
</g>
<!-- port_acme_sw01_gigabitethernet0_0_20 -->
<g id="node21" class="node">
<title>port_acme_sw01_gigabitethernet0_0_20</title>
<polygon fill="#313244" stroke="none" points="16,-565.25 16,-606.25 137.5,-606.25 137.5,-565.25 16,-565.25"/>
<text xml:space="preserve" text-anchor="start" x="22" y="-590.8" font-family="Helvetica,Arial,sans-serif" font-weight="bold" font-size="11.00" fill="#cdd6f4">gigabitethernet0/0/20</text>
<text xml:space="preserve" text-anchor="start" x="45.62" y="-572.45" font-family="Helvetica,Arial,sans-serif" font-size="9.00" fill="#a6adc8">1G • MTU:1514</text>
<polygon fill="none" stroke="#a6e3a1" points="16,-565.25 16,-606.25 137.5,-606.25 137.5,-565.25 16,-565.25"/>
</g>
<!-- port_acme_sw01_gigabitethernet0_0_20&#45;&gt;no_lldp_peer -->
<g id="edge21" class="edge">
<title>port_acme_sw01_gigabitethernet0_0_20&#45;&gt;no_lldp_peer</title>
<path fill="none" stroke="#6c7086" stroke-dasharray="5,2" d="M120.99,-606.05C162.79,-627.59 225.45,-665.21 265,-713.75 328.92,-792.2 372.06,-906.84 388.82,-956.42"/>
<polygon fill="#6c7086" stroke="#6c7086" points="385.39,-957.2 391.86,-965.6 392.04,-955 385.39,-957.2"/>
</g>
<!-- port_acme_sw01_gigabitethernet0_0_21 -->
<g id="node22" class="node">
<title>port_acme_sw01_gigabitethernet0_0_21</title>
<polygon fill="#313244" stroke="none" points="16,-495.25 16,-536.25 137.5,-536.25 137.5,-495.25 16,-495.25"/>
<text xml:space="preserve" text-anchor="start" x="22" y="-520.8" font-family="Helvetica,Arial,sans-serif" font-weight="bold" font-size="11.00" fill="#cdd6f4">gigabitethernet0/0/21</text>
<text xml:space="preserve" text-anchor="start" x="44.12" y="-502.45" font-family="Helvetica,Arial,sans-serif" font-size="9.00" fill="#a6adc8">N/A • MTU:1514</text>
<polygon fill="none" stroke="#f38ba8" points="16,-495.25 16,-536.25 137.5,-536.25 137.5,-495.25 16,-495.25"/>
</g>
<!-- port_acme_sw01_gigabitethernet0_0_21&#45;&gt;no_lldp_peer -->
<g id="edge22" class="edge">
<title>port_acme_sw01_gigabitethernet0_0_21&#45;&gt;no_lldp_peer</title>
<path fill="none" stroke="#6c7086" stroke-dasharray="5,2" d="M123.12,-536.18C165.6,-557.51 227.93,-594.84 265,-644.75 340.68,-746.64 379.01,-897.69 391.71,-956.28"/>
<polygon fill="#6c7086" stroke="#6c7086" points="388.24,-956.78 393.72,-965.85 395.09,-955.34 388.24,-956.78"/>
</g>
<!-- port_acme_sw01_gigabitethernet0_0_22 -->
<g id="node23" class="node">
<title>port_acme_sw01_gigabitethernet0_0_22</title>
<polygon fill="#313244" stroke="none" points="16,-425.25 16,-466.25 137.5,-466.25 137.5,-425.25 16,-425.25"/>
<text xml:space="preserve" text-anchor="start" x="22" y="-450.8" font-family="Helvetica,Arial,sans-serif" font-weight="bold" font-size="11.00" fill="#cdd6f4">gigabitethernet0/0/22</text>
<text xml:space="preserve" text-anchor="start" x="44.12" y="-432.45" font-family="Helvetica,Arial,sans-serif" font-size="9.00" fill="#a6adc8">N/A • MTU:1514</text>
<polygon fill="none" stroke="#f38ba8" points="16,-425.25 16,-466.25 137.5,-466.25 137.5,-425.25 16,-425.25"/>
</g>
<!-- port_acme_sw01_gigabitethernet0_0_22&#45;&gt;no_lldp_peer -->
<g id="edge23" class="edge">
<title>port_acme_sw01_gigabitethernet0_0_22&#45;&gt;no_lldp_peer</title>
<path fill="none" stroke="#6c7086" stroke-dasharray="5,2" d="M126.63,-466.1C169.45,-486.42 230.13,-521.69 265,-570.75 354.91,-697.23 385.55,-888.17 393.93,-955.87"/>
<polygon fill="#6c7086" stroke="#6c7086" points="390.42,-956.01 395.07,-965.53 397.37,-955.19 390.42,-956.01"/>
</g>
<!-- port_acme_sw01_gigabitethernet0_0_23 -->
<g id="node24" class="node">
<title>port_acme_sw01_gigabitethernet0_0_23</title>
<polygon fill="#313244" stroke="none" points="16,-337.38 16,-396.12 137.5,-396.12 137.5,-337.38 16,-337.38"/>
<text xml:space="preserve" text-anchor="start" x="22" y="-380.68" font-family="Helvetica,Arial,sans-serif" font-weight="bold" font-size="11.00" fill="#cdd6f4">gigabitethernet0/0/23</text>
<text xml:space="preserve" text-anchor="start" x="64.75" y="-362.32" font-family="Helvetica,Arial,sans-serif" font-size="9.00" fill="#a6adc8">FREE</text>
<text xml:space="preserve" text-anchor="start" x="44.12" y="-344.57" font-family="Helvetica,Arial,sans-serif" font-size="9.00" fill="#a6adc8">N/A • MTU:1514</text>
<polygon fill="none" stroke="#f38ba8" points="16,-337.38 16,-396.12 137.5,-396.12 137.5,-337.38 16,-337.38"/>
</g>
<!-- port_acme_sw01_gigabitethernet0_0_23&#45;&gt;no_lldp_peer -->
<g id="edge24" class="edge">
<title>port_acme_sw01_gigabitethernet0_0_23&#45;&gt;no_lldp_peer</title>
<path fill="none" stroke="#6c7086" stroke-dasharray="5,2" d="M137.49,-394.19C179.28,-416.39 233.13,-451.54 265,-497.75 369.47,-649.22 391.17,-880.5 395.55,-955.99"/>
<polygon fill="#6c7086" stroke="#6c7086" points="392.03,-955.79 396.05,-965.59 399.03,-955.42 392.03,-955.79"/>
</g>
<!-- port_acme_sw01_gigabitethernet0_1_0 -->
<g id="node25" class="node">
<title>port_acme_sw01_gigabitethernet0_1_0</title>
<polygon fill="#313244" stroke="none" points="19,-267.25 19,-308.25 134.5,-308.25 134.5,-267.25 19,-267.25"/>
<text xml:space="preserve" text-anchor="start" x="25" y="-292.8" font-family="Helvetica,Arial,sans-serif" font-weight="bold" font-size="11.00" fill="#cdd6f4">gigabitethernet0/1/0</text>
<text xml:space="preserve" text-anchor="start" x="43" y="-274.45" font-family="Helvetica,Arial,sans-serif" font-size="9.00" fill="#a6adc8">10G • MTU:9216</text>
<polygon fill="none" stroke="#a6e3a1" points="19,-267.25 19,-308.25 134.5,-308.25 134.5,-267.25 19,-267.25"/>
</g>
<!-- port_acme_sw01_gigabitethernet0_1_0&#45;&gt;no_lldp_peer -->
<g id="edge25" class="edge">
<title>port_acme_sw01_gigabitethernet0_1_0&#45;&gt;no_lldp_peer</title>
<path fill="none" stroke="#6c7086" stroke-dasharray="5,2" d="M124.84,-308.23C168.59,-329.85 231.82,-368.24 265,-421.75 377.84,-603.71 393.99,-873.74 396.26,-956.05"/>
<polygon fill="#6c7086" stroke="#6c7086" points="392.76,-955.98 396.48,-965.9 399.76,-955.82 392.76,-955.98"/>
</g>
<!-- port_acme_sw01_gigabitethernet0_1_1 -->
<g id="node26" class="node">
<title>port_acme_sw01_gigabitethernet0_1_1</title>
<polygon fill="#313244" stroke="none" points="19,-197.25 19,-238.25 134.5,-238.25 134.5,-197.25 19,-197.25"/>
<text xml:space="preserve" text-anchor="start" x="25" y="-222.8" font-family="Helvetica,Arial,sans-serif" font-weight="bold" font-size="11.00" fill="#cdd6f4">gigabitethernet0/1/1</text>
<text xml:space="preserve" text-anchor="start" x="44.12" y="-204.45" font-family="Helvetica,Arial,sans-serif" font-size="9.00" fill="#a6adc8">N/A • MTU:9216</text>
<polygon fill="none" stroke="#f38ba8" points="19,-197.25 19,-238.25 134.5,-238.25 134.5,-197.25 19,-197.25"/>
</g>
<!-- port_acme_sw01_gigabitethernet0_1_1&#45;&gt;no_lldp_peer -->
<g id="edge26" class="edge">
<title>port_acme_sw01_gigabitethernet0_1_1&#45;&gt;no_lldp_peer</title>
<path fill="none" stroke="#6c7086" stroke-dasharray="5,2" d="M129.21,-238.09C172.81,-258.15 233.16,-293.18 265,-343.75 331.85,-449.93 381.82,-851.74 393.85,-955.95"/>
<polygon fill="#6c7086" stroke="#6c7086" points="390.34,-956.1 394.95,-965.63 397.29,-955.3 390.34,-956.1"/>
</g>
<!-- port_acme_sw01_gigabitethernet0_1_2 -->
<g id="node27" class="node">
<title>port_acme_sw01_gigabitethernet0_1_2</title>
<polygon fill="#313244" stroke="none" points="19,-127.25 19,-168.25 134.5,-168.25 134.5,-127.25 19,-127.25"/>
<text xml:space="preserve" text-anchor="start" x="25" y="-152.8" font-family="Helvetica,Arial,sans-serif" font-weight="bold" font-size="11.00" fill="#cdd6f4">gigabitethernet0/1/2</text>
<text xml:space="preserve" text-anchor="start" x="44.12" y="-134.45" font-family="Helvetica,Arial,sans-serif" font-size="9.00" fill="#a6adc8">N/A • MTU:1514</text>
<polygon fill="none" stroke="#f38ba8" points="19,-127.25 19,-168.25 134.5,-168.25 134.5,-127.25 19,-127.25"/>
</g>
<!-- port_acme_sw01_gigabitethernet0_1_2&#45;&gt;no_lldp_peer -->
<g id="edge27" class="edge">
<title>port_acme_sw01_gigabitethernet0_1_2&#45;&gt;no_lldp_peer</title>
<path fill="none" stroke="#6c7086" stroke-dasharray="5,2" d="M132.8,-168.16C176.15,-187.26 234.23,-220.2 265,-268.75 340.41,-387.73 384.66,-844.06 394.52,-955.9"/>
<polygon fill="#6c7086" stroke="#6c7086" points="391.02,-956.09 395.37,-965.75 397.99,-955.48 391.02,-956.09"/>
</g>
<!-- port_acme_sw01_gigabitethernet0_1_3 -->
<g id="node28" class="node">
<title>port_acme_sw01_gigabitethernet0_1_3</title>
<polygon fill="#313244" stroke="none" points="19,-57.25 19,-98.25 134.5,-98.25 134.5,-57.25 19,-57.25"/>
<text xml:space="preserve" text-anchor="start" x="25" y="-82.8" font-family="Helvetica,Arial,sans-serif" font-weight="bold" font-size="11.00" fill="#cdd6f4">gigabitethernet0/1/3</text>
<text xml:space="preserve" text-anchor="start" x="44.12" y="-64.45" font-family="Helvetica,Arial,sans-serif" font-size="9.00" fill="#a6adc8">N/A • MTU:1514</text>
<polygon fill="none" stroke="#f38ba8" points="19,-57.25 19,-98.25 134.5,-98.25 134.5,-57.25 19,-57.25"/>
</g>
<!-- port_acme_sw01_gigabitethernet0_1_3&#45;&gt;no_lldp_peer -->
<g id="edge28" class="edge">
<title>port_acme_sw01_gigabitethernet0_1_3&#45;&gt;no_lldp_peer</title>
<path fill="none" stroke="#6c7086" stroke-dasharray="5,2" d="M134.24,-97.76C177.51,-116.22 234.76,-148.04 265,-195.75 348.42,-327.37 387.02,-836.34 395.02,-955.63"/>
<polygon fill="#6c7086" stroke="#6c7086" points="391.53,-955.82 395.67,-965.57 398.51,-955.36 391.53,-955.82"/>
</g>
</g>
</svg>
